# xmcd CD database file
# Copyright (C) 1997 Ti Kan
# 
# Track frame offsets:
#     150
#     17720
#     34590
#     44300
#     63690
#     82605
#     96958
#     111363
#     125258
#     134995
#     152665
#     173955
#     194088
#     210088
#     222093
#     239345
#     257395
#     282608
#     294685
#     311838
# 
# Disc length: 4474 seconds
# 
# Revision: 1
# Processed by: cddbd v1.4b41PL1 Copyright (c) Steve Scherf et al.
# Submitted via: DiscPlay 4.0.4
# 
DISCID=2b117814
DTITLE=Pure Prarie League - Live!-Takin' The Stage
DYEAR=1900
DGENRE=
TTITLE0=Kansas City Southern
TTITLE1=Harvest
TTITLE2=I'll Change Your Flat Tire, Merle
TTITLE3=Lucille Crawfield
TTITLE4=Two Lane Highway
TTITLE5=Country Song
TTITLE6=Out In The Street
TTITLE7=Dark Colours
TTITLE8=That'll Be The Day
TTITLE9=Sun Shone Lightly
TTITLE10=Heart Of Her Own
TTITLE11=Amie
TTITLE12=Pickin' To Beat The Devil
TTITLE13=Kentucky Moonshine
TTITLE14=Fade Away
TTITLE15=Feelin' Of Love
TTITLE16=Dance
TTITLE17=Louise (What I Did)
TTITLE18=All The Lonesome Cowboys
TTITLE19=Came Through
EXTD=
EXTT0=
EXTT1=
EXTT2=
EXTT3=
EXTT4=
EXTT5=
EXTT6=
EXTT7=
EXTT8=
EXTT9=
EXTT10=
EXTT11=
EXTT12=
EXTT13=
EXTT14=
EXTT15=
EXTT16=
EXTT17=
EXTT18=
EXTT19=
PLAYORDER=
